<svg width="77" height="80" viewBox="0 0 77 80" fill="none" xmlns="http://www.w3.org/2000/svg">
<path d="M17.2931 80C16.9309 80 16.6381 79.7072 16.6381 79.345V74.2433C16.6381 70.8988 15.906 67.7777 14.3955 64.6874C12.677 61.1733 11.8447 57.6207 11.8447 53.8368V16.1449C11.8447 14.0102 12.8003 12.0759 14.488 10.8352C15.5823 10.0337 16.877 9.60987 18.2256 9.60987C18.6726 9.60987 19.1273 9.6561 19.5819 9.74858C19.7361 9.77941 19.8825 9.79482 20.0366 9.79482C20.8997 9.79482 21.6627 9.30932 22.0403 8.52326C23.1269 6.23447 25.3386 4.80879 27.8278 4.80879C28.2902 4.80879 28.7525 4.85502 29.2072 4.95521C29.3613 4.98603 29.5155 5.00144 29.6696 5.00144C30.5173 5.00144 31.2648 4.51594 31.627 3.7376C32.467 1.91889 34.1316 0.570273 36.1969 0.0231192C36.2509 0.00770639 36.3125 0 36.3742 0H38.5474C38.609 0 38.6707 0 38.7246 0.0231192C40.7822 0.55486 42.4468 1.90348 43.2868 3.72989C43.649 4.51594 44.4042 5.00144 45.2519 5.00144C45.406 5.00144 45.5602 4.98603 45.7066 4.95521C46.1844 4.85502 46.6622 4.80108 47.1246 4.80108C48.4501 4.80108 49.6677 5.20952 50.7466 6.01098C52.442 7.26712 53.4515 9.11666 53.4515 10.9739L53.4669 26.7103C53.4669 27.4733 53.806 28.2285 54.4533 28.6369C54.908 28.9221 55.4629 29.0531 56.0331 28.9375C56.5187 28.845 57.0119 28.7988 57.4897 28.7988C58.9847 28.7988 60.3795 29.2534 61.6434 30.1474C63.5238 31.4806 64.6489 33.6769 64.6489 36.0274V49.7062C64.6489 54.4842 62.6761 58.9076 59.0849 62.1751C55.5168 65.4195 53.4669 69.9123 53.4669 74.5053V79.3681C53.4669 79.7072 53.1895 79.9923 52.8504 79.9923H17.2931V80ZM18.2564 12.862C16.5071 12.862 15.0891 14.2645 15.0891 15.9908V53.6827C15.1199 57.1429 15.8058 60.1715 17.1853 62.9689C19.0117 66.6602 19.921 70.5751 19.8902 74.6132C19.8902 75.1835 20.106 75.723 20.5144 76.1314C20.9229 76.5475 21.47 76.771 22.048 76.771H48.0493C48.6273 76.771 49.1745 76.5398 49.5829 76.1237C49.9913 75.7152 50.2071 75.1681 50.2071 74.5901C50.1455 68.9028 52.4112 63.7318 56.5957 60.0327C59.6089 57.4819 61.3197 53.9139 61.3968 49.9836V36.0274C61.3968 33.7077 59.4086 31.8428 57.0581 32.0586C54.9774 32.2512 53.4515 34.1393 53.4515 36.2277V48.319C53.4515 48.6735 53.1587 48.9741 52.8042 48.9741H51.602C44.6739 49.0203 39.0406 54.777 39.056 61.8206V62.599C39.056 62.7685 38.9943 62.9226 38.8787 63.0382C38.7631 63.1538 38.609 63.2232 38.4395 63.2232H36.4512C36.2817 63.2232 36.1276 63.1615 36.012 63.0382C35.8964 62.9149 35.827 62.7608 35.8347 62.599V61.3505C35.8887 54.0757 41.2138 47.664 48.504 46.0919C49.4904 45.8761 50.2225 45.0361 50.2225 44.0266V11.3669C50.2225 9.51739 48.8123 8.06859 47.009 8.06859C45.1826 8.10712 43.8648 9.52509 43.8648 11.3669V36.0119C43.8648 36.3741 43.5719 36.667 43.2097 36.667H41.2831C40.9209 36.667 40.6281 36.3741 40.6281 36.0119V6.43483C40.6281 4.69319 39.2024 3.26751 37.4453 3.26751H37.3529C35.6266 3.32145 34.2703 4.7086 34.2703 6.43483V36.0197C34.2703 36.3819 33.9698 36.6747 33.6153 36.6747H31.6964C31.3342 36.6747 31.0413 36.3819 31.0413 36.0197V11.2205C31.0413 9.47886 29.6157 8.06859 27.874 8.06859C26.0553 8.11483 24.6836 9.49427 24.6836 11.2128V36.0274C24.6836 36.3896 24.383 36.6824 24.0285 36.6824H22.1019C21.7397 36.6824 21.4469 36.3896 21.4469 36.0274V15.9908C21.4469 14.2722 20.0212 12.8774 18.2719 12.8774L18.2564 12.862Z" fill="#917F6C"/>
<path d="M2.85907 55.7172C2.62017 55.7172 2.40439 55.5862 2.30421 55.3704L0.0693575 50.893C-0.0231192 50.708 -0.0231192 50.4923 0.0693575 50.3073L2.07302 46.2537C2.38127 45.6372 2.37357 44.9128 2.07302 44.2963L0.0770639 40.3044C-0.0154128 40.1195 -0.0154128 39.9037 0.0770639 39.7187L2.07302 35.7191C2.38127 35.1026 2.38127 34.3782 2.07302 33.7617L0.0693575 29.7313C-0.0231192 29.5463 -0.0231192 29.3305 0.0693575 29.1533L2.2965 24.6604C2.40439 24.4447 2.61246 24.3137 2.85136 24.3137C2.94384 24.3137 3.04402 24.3368 3.12879 24.3753L4.90897 25.2615C5.23264 25.4234 5.36364 25.8164 5.20181 26.1401L4.04585 28.4751C3.7376 29.0916 3.7376 29.816 4.04585 30.4325L6.04181 34.4321C6.13428 34.6171 6.13428 34.8329 6.04181 35.0178L4.03815 39.0329C3.72989 39.6494 3.72989 40.3738 4.03815 40.9903L6.04181 45.0053C6.13428 45.1903 6.13428 45.406 6.04181 45.591L4.04585 49.5906C3.7376 50.2071 3.7376 50.9315 4.04585 51.548L5.20952 53.8908C5.37135 54.2144 5.24034 54.6075 4.91667 54.7693L3.14421 55.6555C3.05944 55.7018 2.96696 55.7249 2.86678 55.7249L2.85907 55.7172Z" fill="#917F6C"/>
<path d="M73.6346 55.7095C73.5421 55.7095 73.4496 55.6864 73.3571 55.6478L71.5461 54.7462C71.3997 54.6691 71.2841 54.5458 71.2302 54.3917C71.1762 54.2376 71.1916 54.068 71.261 53.9139L72.4401 51.548C72.7483 50.9315 72.7483 50.2071 72.4401 49.5906L70.4441 45.591C70.3516 45.406 70.3516 45.1903 70.4441 45.0053L72.4478 40.9903C72.756 40.3738 72.756 39.6494 72.4478 39.0252L70.4441 35.0101C70.3516 34.8252 70.3516 34.6094 70.4441 34.4244L72.4401 30.4248C72.7483 29.8083 72.7483 29.0839 72.4401 28.4674L71.2841 26.1401C71.1223 25.8164 71.2533 25.4234 71.5769 25.2615L73.3571 24.3753C73.4419 24.3291 73.5344 24.3137 73.6346 24.3137C73.8735 24.3137 74.0892 24.4447 74.1894 24.6604L76.4166 29.1302C76.509 29.3151 76.509 29.5309 76.4166 29.7081L74.4052 33.7617C74.0969 34.3782 74.1046 35.1026 74.4052 35.7191L76.4011 39.7187C76.4936 39.9037 76.4936 40.1195 76.4011 40.3044L74.4052 44.304C74.0969 44.9205 74.0969 45.6449 74.4052 46.2692L76.4089 50.2919C76.5013 50.4768 76.5013 50.6926 76.4089 50.8776L74.1817 55.3704C74.0738 55.5862 73.8657 55.7172 73.6268 55.7172L73.6346 55.7095Z" fill="#917F6C"/>
</svg>
